# xmcd CD database file
#
# Track frame offsets:
#	150
#	8282
#	21019
#	33000
#	42212
#	52989
#	63083
#	73974
#	85371
#	95292
#	108743
#	116321
#	126451
#	138448
#	148423
#	156124
#	166404
#	177580
#	187337
#	196633
#	207427
#	218398
#	230245
#	242804
#	253952
#	262786
#
# Disc length: 3667 seconds
#
# Revision: 0
# Processed by: cddbd v1.5.1PL0 Copyright (c) Steve Scherf et al.
# Submitted via: CDex 1.51
#
DISCID=750e511a
DTITLE=Johnny Cash - American Roadhouse Legends Collection
DYEAR=1900
DGENRE=Country
TTITLE0=Wide Open Road
TTITLE1=Folsom Prison Blues
TTITLE2=You're The Nearest Thing To Heaven
TTITLE3=Blue Train
TTITLE4=Fools Hall Of Fame
TTITLE5=Get Rhythm
TTITLE6=I Love You Because
TTITLE7=Big River
TTITLE8=Ballad Of A Teenage Queen
TTITLE9=Come In Stranger
TTITLE10=Come In Stranger
TTITLE11=Straight A's In Love
TTITLE12=Goodnight Irene
TTITLE13=Hey Porter
TTITLE14=If The Good Lord's Willing
TTITLE15=There You Go
TTITLE16=Oh Lonesome Me
TTITLE17=Rock Island Line
TTITLE18=Luther Played The Boogie
TTITLE19=Train Of Love
TTITLE20=The Ways Of A Woman In Love
TTITLE21=So Doggone Lonesome
TTITLE22=Next In Line
TTITLE23=Cry, Cry, Cry
TTITLE24=Guess Things Happen That Way
TTITLE25=I Walk The Line
EXTD=
EXTT0=
EXTT1=
EXTT2=
EXTT3=
EXTT4=
EXTT5=
EXTT6=
EXTT7=
EXTT8=
EXTT9=
EXTT10=
EXTT11=
EXTT12=
EXTT13=
EXTT14=
EXTT15=
EXTT16=
EXTT17=
EXTT18=
EXTT19=
EXTT20=
EXTT21=
EXTT22=
EXTT23=
EXTT24=
EXTT25=
PLAYORDER=
